<svg xmlns="http://www.w3.org/2000/svg" viewBox="0 0 132 36" width="132" height="36">
	<style>
		tspan { white-space:pre }
		.shp0 { fill: #00d4ff } 
		.shp1 { fill: #ffffff } 
	</style>
	<path id="Symbol" fill-rule="evenodd" class="shp0" d="M0 34C0 32.9 0.9 32 2 32C2.74 32 3.39 32.4 3.73 33L21 33C23 33.03 23 31 23 31L23 12C23 12 23 10 21 10L5 10C3 10 3 12 3 12L3 24.27C3.6 24.61 4 25.26 4 26C4 27.1 3.1 28 2 28C0.9 28 0 27.1 0 26C0 25.26 0.4 24.61 1 24.27L1 11C1 11 1 8 4 8L22 8C25 8 25 11 25 11L25 32C25 32 25 35 22 35L3.73 35C3.39 35.6 2.74 36 2 36C0.9 36 0 35.1 0 34ZM1 6C1 6 0 6 0 5C0 4 1 4 1 4L8 4L8 2C8 2 8 0 10 0L16 0C18 0 18 2 18 2L18 4L25 4C25 4 26 4 26 5C26 6 25 6 25 6L1 6ZM10 2L10 4L16 4L16 2L10 2ZM9 14C9 14 9 13 10 13C11 13 11 14 11 14L11 29C11 29 11 30 10 30C9 30 9 29 9 29L9 14ZM15 14C15 14 15 13 16 13C17 13 17 14 17 14L17 29C17 29 17 30 16 30C15 30 15 29 15 29L15 14Z" />
	<path id="Binman" fill-rule="evenodd" class="shp1" d="M43.64 26.8C45.15 26.8 46.43 26.27 47.5 25.2C48.56 24.12 49.09 22.83 49.09 21.31C49.09 19.79 48.56 18.49 47.5 17.42C46.43 16.35 45.15 15.82 43.64 15.82C42.13 15.82 40.84 16.35 39.78 17.42C38.71 18.49 38.18 19.79 38.18 21.31C38.18 22.83 38.71 24.12 39.78 25.2C40.84 26.27 42.13 26.8 43.64 26.8ZM38.18 15.93L38.24 15.87C39.73 14.37 41.53 13.62 43.64 13.62C45.75 13.62 47.55 14.37 49.04 15.87C50.53 17.37 51.27 19.19 51.27 21.31C51.27 23.43 50.53 25.25 49.04 26.75C47.55 28.25 45.75 29 43.64 29C41.53 29 39.73 28.25 38.24 26.75C36.75 25.25 36 23.43 36 21.31L36 8.1C36 7.8 36.11 7.54 36.32 7.32C36.53 7.11 36.79 7 37.09 7C37.39 7 37.65 7.11 37.86 7.32C38.08 7.54 38.18 7.8 38.18 8.1L38.18 15.93ZM57 10.32C57 10.7 56.87 11.02 56.6 11.29C56.33 11.56 56.01 11.7 55.64 11.7C55.26 11.7 54.94 11.56 54.67 11.29C54.41 11.02 54.27 10.7 54.27 10.32C54.27 9.95 54.41 9.63 54.67 9.36C54.94 9.09 55.26 8.95 55.64 8.95C56.01 8.95 56.33 9.09 56.6 9.36C56.87 9.63 57 9.95 57 10.32ZM54.55 14.72C54.55 14.42 54.65 14.16 54.87 13.94C55.08 13.73 55.34 13.62 55.64 13.62C55.94 13.62 56.19 13.73 56.41 13.94C56.62 14.16 56.73 14.42 56.73 14.72L56.73 27.9C56.73 28.2 56.62 28.46 56.41 28.68C56.19 28.89 55.94 29 55.64 29C55.34 29 55.08 28.89 54.87 28.68C54.65 28.46 54.55 28.2 54.55 27.9L54.55 14.72ZM60 14.72C60 14.42 60.11 14.16 60.32 13.94C60.53 13.73 60.79 13.62 61.09 13.62C61.39 13.62 61.65 13.73 61.86 13.94C62.08 14.16 62.18 14.42 62.18 14.72L62.18 15.61C63.55 14.28 65.18 13.62 67.09 13.62C69.05 13.62 70.72 14.32 72.1 15.71C73.49 17.11 74.18 18.79 74.18 20.76L74.18 27.9C74.18 28.2 74.08 28.46 73.86 28.68C73.65 28.89 73.39 29 73.09 29C72.79 29 72.53 28.89 72.32 28.68C72.11 28.46 72 28.2 72 27.9L72 20.76C72 19.4 71.52 18.23 70.56 17.27C69.6 16.3 68.45 15.82 67.09 15.82C65.74 15.82 64.58 16.3 63.62 17.27C62.66 18.23 62.18 19.4 62.18 20.76L62.18 27.9C62.18 28.2 62.08 28.46 61.86 28.68C61.65 28.89 61.39 29 61.09 29C60.79 29 60.53 28.89 60.32 28.68C60.11 28.46 60 28.2 60 27.9L60 14.72ZM78.55 27.9C78.55 28.2 78.44 28.46 78.22 28.68C78.01 28.89 77.75 29 77.45 29C77.15 29 76.9 28.89 76.68 28.68C76.47 28.46 76.36 28.2 76.36 27.9L76.36 14.72C76.36 14.42 76.47 14.16 76.68 13.94C76.9 13.73 77.15 13.62 77.45 13.62C77.75 13.62 78.01 13.73 78.22 13.94C78.44 14.16 78.55 14.42 78.55 14.72L78.55 15.01C79.63 14.08 80.9 13.62 82.36 13.62C84.02 13.62 85.43 14.21 86.6 15.39C86.85 15.64 87.07 15.9 87.27 16.17C87.47 15.9 87.7 15.64 87.94 15.39C89.11 14.21 90.53 13.62 92.18 13.62C93.84 13.62 95.25 14.21 96.42 15.39C97.6 16.57 98.18 18 98.18 19.66L98.18 27.9C98.18 28.2 98.08 28.46 97.86 28.68C97.65 28.89 97.39 29 97.09 29C96.79 29 96.53 28.89 96.32 28.68C96.11 28.46 96 28.2 96 27.9L96 19.66C96 18.6 95.63 17.69 94.88 16.94C94.14 16.19 93.24 15.82 92.18 15.82C91.13 15.82 90.23 16.19 89.48 16.94C88.74 17.69 88.36 18.6 88.36 19.66L88.36 27.9C88.36 28.2 88.26 28.46 88.04 28.68C87.83 28.89 87.57 29 87.27 29C86.97 29 86.72 28.89 86.5 28.68C86.29 28.46 86.18 28.2 86.18 27.9L86.18 19.66C86.18 18.6 85.81 17.69 85.06 16.94C84.32 16.19 83.42 15.82 82.36 15.82C81.31 15.82 80.41 16.19 79.66 16.94C78.92 17.69 78.55 18.6 78.55 19.66L78.55 27.9ZM108 15.82C106.49 15.82 105.2 16.35 104.14 17.42C103.08 18.49 102.55 19.79 102.55 21.31C102.55 22.83 103.08 24.12 104.14 25.2C105.2 26.27 106.49 26.8 108 26.8C109.51 26.8 110.8 26.27 111.86 25.2C112.92 24.12 113.45 22.83 113.45 21.31C113.45 19.79 112.92 18.49 111.86 17.42C110.8 16.35 109.51 15.82 108 15.82ZM113.45 26.69C111.93 28.23 110.11 29 108 29C105.89 29 104.09 28.25 102.6 26.75C101.11 25.25 100.36 23.43 100.36 21.31C100.36 19.19 101.11 17.37 102.6 15.87C104.09 14.37 105.89 13.62 108 13.62C110.11 13.62 111.91 14.37 113.4 15.87C114.89 17.37 115.64 19.19 115.64 21.31L115.64 27.9C115.64 28.2 115.53 28.46 115.32 28.68C115.1 28.89 114.85 29 114.55 29C114.25 29 113.99 28.89 113.78 28.68C113.56 28.46 113.45 28.2 113.45 27.9L113.45 26.69ZM117.82 14.72C117.82 14.42 117.92 14.16 118.14 13.94C118.35 13.73 118.61 13.62 118.91 13.62C119.21 13.62 119.47 13.73 119.68 13.94C119.89 14.16 120 14.42 120 14.72L120 15.61C121.36 14.28 123 13.62 124.91 13.62C126.86 13.62 128.53 14.32 129.92 15.71C131.31 17.11 132 18.79 132 20.76L132 27.9C132 28.2 131.89 28.46 131.68 28.68C131.47 28.89 131.21 29 130.91 29C130.61 29 130.35 28.89 130.14 28.68C129.92 28.46 129.82 28.2 129.82 27.9L129.82 20.76C129.82 19.4 129.34 18.23 128.38 17.27C127.42 16.3 126.26 15.82 124.91 15.82C123.55 15.82 122.4 16.3 121.44 17.27C120.48 18.23 120 19.4 120 20.76L120 27.9C120 28.2 119.89 28.46 119.68 28.68C119.47 28.89 119.21 29 118.91 29C118.61 29 118.35 28.89 118.14 28.68C117.92 28.46 117.82 28.2 117.82 27.9L117.82 14.72Z" />
</svg>